<svg width="104" height="205" viewBox="0 0 104 205" fill="none" xmlns="http://www.w3.org/2000/svg">
<mask id="mask0_139_3977" style="mask-type:luminance" maskUnits="userSpaceOnUse" x="0" y="0" width="104" height="205">
<path d="M0 0.000518799H104V204.049H0V0.000518799Z" fill="white"/>
</mask>
<g mask="url(#mask0_139_3977)">
<path d="M9.54931 120.868H4.53009V131.458H9.59483C12.7717 131.458 15.4882 129.525 15.4882 126.164C15.4882 122.848 12.7717 120.868 9.54931 120.868ZM10.1017 134.082H4.53009V147.527H1.44531V118.152H10.0097C14.4765 118.152 18.6205 121.099 18.6205 126.117C18.6205 131.136 14.522 134.082 10.1017 134.082Z" fill="#0C4524"/>
<path d="M37.1284 120.408C30.7281 120.408 24.8803 125.335 24.8803 132.887C24.8803 140.391 30.7281 145.365 37.1284 145.365C43.5286 145.365 49.3299 140.391 49.3299 132.887C49.3299 125.335 43.5286 120.408 37.1284 120.408ZM37.1284 148.035C29.0244 148.035 21.75 141.957 21.75 132.795C21.75 123.724 29.0244 117.6 37.1284 117.6C45.2779 117.6 52.5067 123.724 52.5067 132.795C52.5067 141.957 45.2779 148.035 37.1284 148.035Z" fill="#0C4524"/>
<path d="M64.8883 147.758C61.5739 147.758 58.6267 146.7 57.015 145.548L56.5547 142.187C58.7643 143.845 61.758 145.042 64.9349 145.042C68.48 145.042 70.9669 143.062 70.9669 139.47C70.9669 131.781 57.4298 135.51 57.4298 125.197C57.4298 121.237 60.1464 117.876 65.81 117.876C68.4345 117.876 70.8738 118.751 72.2093 119.533L71.5182 122.204C70.3679 121.421 68.1117 120.5 65.8556 120.5C62.356 120.5 60.4691 122.572 60.4691 124.967C60.4691 132.702 74.0972 129.064 74.0972 139.516C74.0972 144.489 70.552 147.758 64.8883 147.758Z" fill="#0C4524"/>
<path d="M99.0519 147.528V134.083H82.2915V147.528H79.1602V118.153H82.2915V131.413H99.0519V118.153H102.229V147.528H99.0519Z" fill="#0C4524"/>
<path d="M3.60776 190.025V195.312H3.33053V190.025H1.28125V189.773H5.66531V190.025H3.60776Z" fill="#0C4524"/>
<path d="M8.07194 190.025H7.01265V192.395H8.10608C8.82606 192.395 9.39088 191.909 9.39088 191.214C9.39088 190.52 8.81882 190.025 8.07194 190.025ZM10.0167 195.312L8.14952 192.638H7.01265V195.312H6.73438V189.773H8.09677C9.01744 189.773 9.66915 190.398 9.66915 191.214C9.66915 191.936 9.18295 192.482 8.45366 192.612L10.3457 195.312H10.0167Z" fill="#0C4524"/>
<path d="M12.0691 193.361H14.439L13.6321 191.261C13.5018 190.923 13.3808 190.566 13.267 190.201H13.2504C13.1366 190.566 13.0156 190.923 12.8852 191.252L12.0691 193.361ZM13.207 189.698H13.3197L15.49 195.315H15.1942L14.5352 193.613H11.9739L11.3139 195.315H11.0273L13.207 189.698Z" fill="#0C4524"/>
<path d="M18.3983 195.417H18.2938L16.0625 189.774H16.3584L17.7032 193.169C17.9121 193.69 18.1718 194.376 18.3456 194.888H18.3632C18.5369 194.376 18.78 193.724 18.9973 193.169L20.3431 189.774H20.6286L18.3983 195.417Z" fill="#0C4524"/>
<path d="M21.9961 189.775H24.7654V190.027H22.2744V192.397H24.2792V192.649H22.2744V195.063H25.0778V195.315H21.9961V189.775Z" fill="#0C4524"/>
<path d="M26.4336 195.312V189.772H26.7108V195.061H29.4366V195.312H26.4336Z" fill="#0C4524"/>
<path d="M33.9792 193.361H36.3492L35.5423 191.261C35.4119 190.923 35.2899 190.566 35.1771 190.201H35.1606C35.0468 190.566 34.9257 190.923 34.7954 191.252L33.9792 193.361ZM35.1171 189.698H35.2288L37.4002 195.315H37.1043L36.4443 193.613H33.883L33.224 195.315H32.9375L35.1171 189.698Z" fill="#0C4524"/>
<path d="M43.3152 195.357L40.4766 191.989C39.9811 191.407 39.4091 190.712 39.0346 190.235L39.018 190.244C39.0346 190.765 39.0346 191.32 39.0346 191.928V195.313H38.7656V189.775H38.9663L41.7614 193.108C42.1949 193.62 42.7256 194.255 43.1238 194.767L43.1414 194.758C43.1331 194.185 43.1238 193.673 43.1238 193.126V189.775H43.3928V195.357H43.3152Z" fill="#0C4524"/>
<path d="M46.2458 190.025H45.3955V195.051H46.2458C47.9651 195.051 49.1371 194.097 49.1371 192.543C49.1371 190.989 47.9651 190.025 46.2458 190.025ZM46.2717 195.312H45.1172V189.773H46.2717C48.0954 189.773 49.4226 190.815 49.4226 192.543C49.4226 194.27 48.0954 195.312 46.2717 195.312Z" fill="#0C4524"/>
<path d="M57.4052 195.312V192.647H53.8632V195.312H53.5859V189.772H53.8632V192.395H57.4052V189.772H57.6917V195.312H57.4052Z" fill="#0C4524"/>
<path d="M62.0178 189.948C60.5768 189.948 59.4399 191.059 59.4399 192.545C59.4399 194.028 60.5768 195.14 62.0178 195.14C63.4599 195.14 64.5874 194.028 64.5874 192.545C64.5874 191.059 63.4599 189.948 62.0178 189.948ZM62.0178 195.392C60.4206 195.392 59.1523 194.176 59.1523 192.545C59.1523 190.912 60.4206 189.688 62.0178 189.688C63.615 189.688 64.874 190.912 64.874 192.545C64.874 194.176 63.615 195.392 62.0178 195.392Z" fill="#0C4524"/>
<path d="M67.7422 195.365C67.0822 195.365 66.4926 195.13 66.1626 194.878L66.1016 194.531C66.536 194.861 67.0998 195.113 67.7515 195.113C68.4715 195.113 69.0177 194.61 69.0177 193.88C69.0177 192.266 66.3188 192.917 66.3188 191.025C66.3188 190.339 66.7781 189.722 67.7857 189.722C68.246 189.722 68.6795 189.877 68.9308 190.043L68.8532 190.295C68.6195 190.13 68.1767 189.974 67.7774 189.974C66.9695 189.974 66.5971 190.503 66.5971 191.015C66.5971 192.691 69.296 192.005 69.296 193.889C69.296 194.784 68.6101 195.365 67.7422 195.365Z" fill="#0C4524"/>
<path d="M72.1812 190.025H71.0361V192.395H72.2164C72.9364 192.395 73.5012 191.909 73.5012 191.214C73.5012 190.52 72.9281 190.025 72.1812 190.025ZM72.2423 192.647H71.0361V195.312H70.7578V189.773H72.2071C73.1278 189.773 73.7795 190.398 73.7795 191.214C73.7795 192.031 73.1371 192.647 72.2423 192.647Z" fill="#0C4524"/>
<path d="M75.1172 189.774H75.3955V195.312H75.1172V189.774Z" fill="#0C4524"/>
<path d="M78.8773 190.025V195.312H78.599V190.025H76.5508V189.773H80.9348V190.025H78.8773Z" fill="#0C4524"/>
<path d="M81.9987 193.361H84.3687L83.5618 191.261C83.4315 190.923 83.3094 190.566 83.1966 190.201H83.1801C83.0663 190.566 82.9453 190.923 82.8149 191.252L81.9987 193.361ZM83.1366 189.698H83.2484L85.4197 195.315H85.1239L84.4639 193.613H81.9025L81.2436 195.315H80.957L83.1366 189.698Z" fill="#0C4524"/>
<path d="M86.7852 195.312V189.772H87.0634V195.061H89.7882V195.312H86.7852Z" fill="#0C4524"/>
<path d="M91.0391 189.774H91.3163V195.312H91.0391V189.774Z" fill="#0C4524"/>
<path d="M94.7992 190.025V195.312H94.5209V190.025H92.4727V189.773H96.8567V190.025H94.7992Z" fill="#0C4524"/>
<path d="M99.9579 192.742V195.312H99.6713V192.742L97.5703 189.773H97.9003L99.1851 191.597C99.393 191.892 99.6196 192.204 99.8099 192.517H99.8275C100.019 192.213 100.243 191.901 100.461 191.597L101.755 189.773H102.076L99.9579 192.742Z" fill="#0C4524"/>
<path d="M17.5048 86.0502C30.5059 96.8666 53.2849 91.8226 73.1187 80.9327C52.8193 87.8388 31.8445 91.0302 20.0061 82.9768C19.1651 83.9948 18.3292 85.022 17.5048 86.0502ZM22.7474 79.711C36.3486 88.0064 60.4444 83.0637 79.4961 71.0639C53.9004 81.1034 37.2206 82.773 25.617 76.4121L25.5901 76.4287C24.6312 77.5159 23.6847 78.6135 22.7423 79.7172L22.7474 79.711ZM28.0005 73.7349C42.934 79.111 67.6412 73.9439 82.8747 62.7365C62.833 72.5784 43.7326 74.6556 31.0356 70.4422C30.0135 71.5336 29.0018 72.6322 28.0005 73.7349ZM34.2548 67.0637C49.7035 69.986 64.6743 69.4719 86.816 55.4539C63.7112 67.8705 50.169 66.833 37.4617 63.8185C36.3858 64.8882 35.3152 65.9702 34.2548 67.0637ZM40.712 60.6376C54.7362 62.5337 77.2255 61.1351 94.2911 48.5891C75.8548 58.2966 56.2196 58.9079 43.925 57.6118L43.9085 57.6231C42.8378 58.6193 41.7733 59.6196 40.7171 60.6376H40.712ZM48.2946 53.6497C60.0316 54.4577 83.095 53.2204 98.9824 41.35C81.7182 50.6674 61.0227 50.5381 51.7052 50.6829C50.5601 51.6574 49.4191 52.6474 48.2894 53.6435L48.2946 53.6497ZM56.2093 46.9516L56.3314 46.9661C66.6501 48.3585 90.0725 45.4837 102.024 35.8083C85.6171 43.6361 68.4449 45.3926 60.0534 43.8978C58.7634 44.9002 57.4786 45.9182 56.2041 46.9454L56.2093 46.9516ZM12.0438 93.0877C30.147 105.741 51.3152 98.8114 66.2281 90.1053C44.616 97.2473 26.6132 98.4421 14.6879 89.6233C13.7941 90.7746 12.9159 91.9301 12.049 93.0939L12.0438 93.0877ZM102.436 17.8159V22.5765C96.8079 24.7344 91.6356 25.8754 85.5529 27.336C84.6581 27.7229 83.7643 28.1026 82.8644 28.4781C81.5847 29.2208 80.3154 29.976 79.0524 30.7529C88.8291 29.4619 96.4552 27.2781 102.436 24.724V26.7319C91.6201 31.4015 82.1578 32.767 75.0148 33.2863C73.7931 34.0735 72.5838 34.8763 71.3787 35.6904C71.3942 35.6966 71.4108 35.6966 71.4263 35.6966C78.7948 36.3224 91.8176 33.8646 102.436 28.3974V31.1491C89.0174 37.3776 76.1714 38.8496 67.3256 38.501C66.3026 39.2303 65.2795 39.9689 64.2678 40.7189C64.2678 40.7779 64.3164 40.8203 64.4178 40.8358C71.989 42.2127 90.6291 39.6369 102.436 32.3067V104.859H1.80469C21.8909 74.5118 50.2063 45.5809 82.1578 27.0485C88.2415 24.5099 95.4859 21.1851 102.436 17.8117V17.8159Z" fill="#F7A49E"/>
<path d="M26.8651 66.5141H26.8599C26.8754 66.3527 26.8971 66.181 26.8971 66.0693C27.0047 50.3206 41.5907 19.1087 58.5383 4.30857C40.7497 27.0399 33.285 47.4406 30.554 62.9007C29.3126 64.0934 28.0857 65.2986 26.8651 66.5141ZM19.4169 74.2291H19.4117V74.0853C19.0642 54.2888 28.9216 31.2047 46.2178 12.4902C32.1181 33.0574 23.4596 53.0143 24.1455 69.2606C22.5503 70.8992 20.9707 72.5543 19.4169 74.2291ZM12.7343 81.6835H12.7291C12.7312 81.6824 12.7322 81.6804 12.7332 81.6793C12.7187 81.5583 12.7074 81.4414 12.696 81.3566C10.1378 60.9983 17.7038 39.7949 35.9735 18.6649C20.1183 41.9362 14.2498 60.7531 16.7014 77.1856C15.3649 78.668 14.0429 80.1649 12.7332 81.6793C12.7343 81.6804 12.7343 81.6824 12.7343 81.6835ZM6.50161 89.1699C6.46437 89.0044 6.42092 88.8172 6.39506 88.6992C2.1372 69.5337 8.27365 49.3306 24.8034 28.0837C10.4533 50.7333 5.95541 69.0837 10.0519 84.8427C8.85191 86.2734 7.66849 87.7196 6.50161 89.1699ZM102.437 7.48956V3.9972H97.8097C85.5906 12.4364 78.8221 19.179 72.9215 29.7802C71.5509 30.6212 70.1854 31.484 68.8302 32.3622L68.8737 32.265C72.6164 23.4462 82.0941 11.6812 96.5094 3.99202H88.4178C76.1822 16.0715 69.1623 26.9261 64.7606 35.0539C63.4707 35.928 62.19 36.8104 60.9207 37.7115C60.9435 37.6473 60.9652 37.5873 60.9807 37.5397C64.7286 26.3706 73.8153 15.0753 87.6678 3.99202H81.1238C66.8172 18.5418 60.1242 29.4544 57.0394 40.5159C55.4484 41.689 53.875 42.8786 52.3108 44.0879L52.3698 43.9069C56.5408 30.4547 64.8413 17.0853 80.7017 3.9972H74.0677C58.978 22.3321 51.7274 33.4753 48.504 47.0972C48.3426 47.2265 48.1875 47.3547 48.0271 47.4841C46.6027 48.6354 45.1948 49.7971 43.7972 50.9743C43.8344 50.8243 43.8831 50.6537 43.9089 50.5461C48.2888 34.0639 56.038 20.0676 73.4574 4.0034H66.3941C49.013 24.8644 44.9206 36.0615 39.3955 54.7657C37.9545 56.0339 36.5249 57.3146 35.1118 58.6159L35.1594 58.407C39.4866 39.349 48.5081 20.6831 66.0247 3.9972H1.57031V98.1553C23.4865 68.5861 52.6429 42.5672 82.0083 26.3106V26.3003C88.0806 22.6538 95.2556 18.4445 102.437 14.9377V9.22849C92.5681 14.9056 85.1355 21.4921 80.7276 25.2027C79.148 26.0799 77.5797 26.9861 76.0218 27.9058C81.8045 19.7345 92.3002 11.9502 102.437 7.48956Z" fill="#0C4524"/>
<path d="M5.67478 157.599H3.00172V163.811H5.70168C7.56578 163.811 9.15886 162.677 9.15886 160.705C9.15886 158.76 7.56578 157.599 5.67478 157.599ZM11.023 173.236L5.78236 165.324H3.00172V173.236H1.19141V156.005H5.94581C8.56508 156.005 10.995 157.734 10.995 160.679C10.995 162.973 9.53644 164.514 7.64647 165.08L13.156 173.236H11.023Z" fill="#F7A49E"/>
<path d="M14.9609 156.005H23.9546V157.599H16.7971V163.784H22.6853V165.351H16.7971V171.643H24.9001V173.236H14.9609V156.005Z" fill="#F7A49E"/>
<path d="M33.0564 157.599V173.236H31.2471V157.599H25.332V156.005H38.9973V157.599H33.0564Z" fill="#F7A49E"/>
<path d="M45.2607 157.599H42.5877V163.811H45.2876C47.1517 163.811 48.7448 162.677 48.7448 160.705C48.7448 158.76 47.1517 157.599 45.2607 157.599ZM50.6089 173.236L45.3683 165.324H42.5877V173.236H40.7773V156.005H45.5317C48.151 156.005 50.581 157.734 50.581 160.679C50.581 162.973 49.1224 164.514 47.2324 165.08L52.742 173.236H50.6089Z" fill="#F7A49E"/>
<path d="M54.5469 156.005H63.5395V157.599H56.3831V163.784H62.2712V165.351H56.3831V171.643H64.485V173.236H54.5469V156.005Z" fill="#F7A49E"/>
<path d="M70.0193 166.917H76.0957L73.9627 161.65C73.6378 160.867 73.3678 159.922 73.071 159.004H73.0172C72.7741 159.922 72.4503 160.867 72.1534 161.623L70.0193 166.917ZM72.7472 155.763H73.4216L80.4984 173.236H78.6343L76.6895 168.403H69.3976L67.4538 173.236H65.6445L72.7472 155.763Z" fill="#F7A49E"/>
<path d="M87.0876 157.599V173.236H85.2784V157.599H79.3633V156.005H93.0296V157.599H87.0876Z" fill="#F7A49E"/>
<path d="M98.049 173.371C96.1042 173.371 94.3757 172.749 93.4302 172.074L93.1602 170.103C94.4563 171.075 96.2129 171.777 98.0749 171.777C100.155 171.777 101.614 170.616 101.614 168.509C101.614 163.999 93.6733 166.187 93.6733 160.137C93.6733 157.815 95.2674 155.843 98.588 155.843C100.128 155.843 101.56 156.356 102.342 156.816L101.938 158.382C101.263 157.922 99.939 157.382 98.6159 157.382C96.5635 157.382 95.4556 158.598 95.4556 160.002C95.4556 164.54 103.451 162.406 103.451 168.536C103.451 171.453 101.371 173.371 98.049 173.371Z" fill="#F7A49E"/>
<path d="M102.434 182.872H1.20312V182.613H102.434V182.872Z" fill="#0C4524"/>
</g>
</svg>
